<svg aria-hidden="true" focusable="false" class="moduk-header__logotype-modlogo" xmlns="http://www.w3.org/2000/svg"
  viewBox="0 0 210 40" height="40" width="210">
  <title>Ministry of Defence</title>
  <path fill="currentColor"
    d="M1.7,0H0v40h1.7V0z M43.9,15.8h2.6L51,28l4.6-12.2h2.6v14.5h-1.8v-12h-0.1l-4.5,12h-1.7l-4.5-12v12h-1.8V15.8z M62.4,18h-1.7v-2.1h1.7V18z M60.7,19.8h1.7v10.5h-1.7V19.8z M64.5,19.8h1.6v1.7h0.1c0.8-1.3,1.9-1.9,3.4-1.9c2.7,0,3.6,1.6,3.6,3.8 v6.9h-1.7v-7.1c0-1.3-0.8-2.1-2.1-2.1c-2.1,0-3.1,1.4-3.1,3.3v5.9h-1.7L64.5,19.8L64.5,19.8z M77,18h-1.7v-2.1H77V18z M75.3,19.8H77 v10.5h-1.7V19.8z M80.3,27c0.1,1.6,1.4,2,2.8,2c1.1,0,2.5-0.3,2.5-1.6c0-1.3-1.7-1.6-3.4-1.9c-1.7-0.4-3.4-1-3.4-2.9 c0-2.1,2.1-2.9,3.9-2.9c2.3,0,4.1,0.8,4.3,3.3h-1.7c-0.1-1.3-1.3-1.8-2.4-1.8c-1,0-2.2,0.3-2.2,1.3c0,1.2,1.8,1.4,3.4,1.8 c1.7,0.4,3.4,1,3.4,2.9c0,2.5-2.3,3.3-4.5,3.3c-2.4,0-4.3-1-4.5-3.5H80.3z M91.3,19.8h2.1v1.5h-2.1v6.5c0,0.8,0.2,0.9,1.3,0.9h0.8 v1.5H92c-1.8,0-2.5-0.4-2.5-2.3v-6.6h-1.8v-1.5h1.8v-3.1h1.7V19.8z M94.6,19.8h1.6V22h0.1c0.8-1.7,2-2.5,3.9-2.5v1.8 c-2.8,0-3.8,1.6-3.8,4.2v4.7h-1.7L94.6,19.8L94.6,19.8z M105.7,31.7c-0.8,2-1.5,2.8-3.1,2.8c-0.4,0-0.8-0.1-1.2-0.2v-1.6 c0.3,0.1,0.6,0.3,1,0.3c0.7,0,1.1-0.3,1.4-1l0.7-1.8l-4.1-10.4h1.9l3.1,8.5h0.1l2.9-8.5h1.8L105.7,31.7z M121.4,19.6 c3.3,0,5.1,2.4,5.1,5.5s-1.8,5.5-5.1,5.5c-3.3,0-5.1-2.4-5.1-5.5S118.1,19.6,121.4,19.6z M121.4,29c1.8,0,3.3-1.4,3.3-3.9 c0-2.6-1.4-4-3.3-4c-1.8,0-3.3,1.4-3.3,4C118.2,27.6,119.6,29,121.4,29z M128.6,21.3h-1.8v-1.5h1.8v-1.6c0-1.7,1-2.6,2.9-2.6 c0.3,0,0.8,0.1,1.1,0.2v1.5c-0.3-0.1-0.6-0.2-1-0.2c-0.8,0-1.3,0.3-1.3,1.2v1.4h2v1.5h-2v9h-1.7V21.3z M139.4,15.8h4.9 c4.5,0,6.9,2.2,6.9,6.9c0,4.8-2.1,7.6-6.9,7.6h-4.9V15.8z M141.3,28.6h3.2c1.3,0,4.8-0.4,4.8-5.7c0-3.4-1.3-5.5-4.8-5.5h-3.2V28.6z M161.8,27c-0.5,2.3-2.1,3.5-4.4,3.5c-3.3,0-4.9-2.3-5-5.5c0-3.1,2-5.4,4.9-5.4c3.7,0,4.8,3.4,4.7,6h-7.8c-0.1,1.8,1,3.4,3.3,3.4 c1.4,0,2.4-0.7,2.7-2H161.8z M160.2,24c-0.1-1.7-1.3-2.9-3-2.9c-1.8,0-2.9,1.3-3,2.9H160.2z M164,21.3h-1.8v-1.5h1.8v-1.6 c0-1.7,1-2.6,2.9-2.6c0.3,0,0.8,0.1,1.1,0.2v1.5c-0.3-0.1-0.6-0.2-1-0.2c-0.8,0-1.3,0.3-1.3,1.2v1.4h2v1.5h-2v9H164V21.3z M177.4,27 c-0.5,2.3-2.1,3.5-4.4,3.5c-3.3,0-4.9-2.3-5-5.5c0-3.1,2-5.4,4.9-5.4c3.7,0,4.8,3.4,4.7,6h-7.8c-0.1,1.8,1,3.4,3.3,3.4 c1.4,0,2.4-0.7,2.7-2H177.4z M175.8,24c-0.1-1.7-1.3-2.9-3-2.9c-1.8,0-2.9,1.3-3,2.9H175.8z M179,19.8h1.6v1.7h0.1 c0.8-1.3,1.9-1.9,3.4-1.9c2.7,0,3.6,1.6,3.6,3.8v6.9H186v-7.1c0-1.3-0.8-2.1-2.1-2.1c-2.1,0-3.1,1.4-3.1,3.3v5.9H179L179,19.8 L179,19.8z M196.9,23.2c-0.3-1.3-1.2-2.1-2.6-2.1c-2.5,0-3.3,2-3.3,4.1c0,1.9,0.9,3.8,3.1,3.8c1.7,0,2.6-1,2.9-2.6h1.8 c-0.4,2.6-2,4.1-4.6,4.1c-3.2,0-4.9-2.2-4.9-5.3c0-3.1,1.6-5.6,4.9-5.6c2.4,0,4.3,1.1,4.5,3.6H196.9z M209.1,27 c-0.5,2.3-2.1,3.5-4.5,3.5c-3.3,0-4.9-2.3-5-5.5c0-3.1,2-5.4,4.9-5.4c3.7,0,4.8,3.4,4.7,6h-7.8c-0.1,1.8,1,3.4,3.3,3.4 c1.4,0,2.4-0.7,2.7-2H209.1z M207.5,24c-0.1-1.7-1.3-2.9-3-2.9c-1.8,0-2.9,1.3-3,2.9H207.5z M22.4,36.7c-3.1,0-6.1-1.2-8.3-3.4 s-3.4-5.1-3.4-8.2c0-3.1,1.2-6.1,3.4-8.3s5.1-3.4,8.3-3.4s6.1,1.2,8.3,3.4c2.2,2.2,3.4,5.1,3.4,8.3c0,3.1-1.2,6.1-3.4,8.3 C28.5,35.5,25.5,36.7,22.4,36.7z M22.4,13.9c-6.2,0-11.2,5-11.2,11.2c0,6.2,5,11.2,11.2,11.2s11.2-5,11.2-11.2 C33.6,18.9,28.5,13.9,22.4,13.9z M23,38.6c0,0.8-0.6,1.4-0.6,1.4s-0.6-0.6-0.6-1.4c0-0.8,0.6-1.4,0.6-1.4S23,37.9,23,38.6z M24.4,38.3c0.7,0.3,1.5,0.1,1.5,0.1s-0.3-0.8-1-1.1c-0.7-0.3-1.5-0.1-1.5-0.1S23.7,38,24.4,38.3z M26.5,37.9 c0.8,0.2,1.5-0.2,1.5-0.2s-0.4-0.8-1.2-1c-0.8-0.2-1.5,0.2-1.5,0.2S25.7,37.6,26.5,37.9z M28.5,37.1c0.8,0.1,1.4-0.4,1.4-0.4 s-0.5-0.6-1.3-0.8c-0.8-0.1-1.4,0.4-1.4,0.4S27.7,36.9,28.5,37.1z M30.3,35.9c0.8,0,1.4-0.6,1.4-0.6s-0.6-0.6-1.4-0.5 c-0.8,0-1.4,0.6-1.4,0.6S29.5,35.9,30.3,35.9z M31.9,34.5c0.8-0.2,1.3-0.8,1.3-0.8s-0.7-0.5-1.5-0.3c-0.8,0.2-1.3,0.8-1.3,0.8 S31.2,34.6,31.9,34.5z M33.3,32.9c0.8-0.3,1.1-1,1.1-1s-0.8-0.3-1.5-0.1c-0.8,0.3-1.1,1-1.1,1S32.6,33.1,33.3,32.9z M34.4,31 c0.7-0.4,1-1.2,1-1.2s-0.8-0.2-1.5,0.2c-0.7,0.4-1,1.2-1,1.2S33.7,31.4,34.4,31z M35.2,29c0.6-0.5,0.8-1.3,0.8-1.3s-0.9-0.1-1.4,0.4 c-0.6,0.5-0.8,1.3-0.8,1.3S34.6,29.5,35.2,29z M35.7,26.9c0.5-0.6,0.5-1.4,0.5-1.4s-0.9,0.1-1.4,0.6c-0.5,0.6-0.5,1.4-0.5,1.4 S35.2,27.5,35.7,26.9z M35.8,24.8c0.4-0.6,0.3-1.5,0.3-1.5s-0.8,0.2-1.2,0.9c-0.4,0.6-0.3,1.5-0.3,1.5S35.4,25.4,35.8,24.8z M35.6,22.6c0.3-0.7,0.1-1.5,0.1-1.5s-0.8,0.3-1.1,1c-0.3,0.7-0.1,1.5-0.1,1.5S35.3,23.3,35.6,22.6z M35,20.5 c0.2-0.8-0.2-1.5-0.2-1.5s-0.8,0.4-0.9,1.2c-0.2,0.8,0.2,1.5,0.2,1.5S34.9,21.3,35,20.5z M34.2,18.6c0.1-0.8-0.4-1.4-0.4-1.4 s-0.6,0.6-0.8,1.3c-0.1,0.8,0.4,1.4,0.4,1.4S34,19.4,34.2,18.6z M33,16.8c-0.1-0.8-0.6-1.3-0.6-1.3s-0.5,0.6-0.5,1.4 c0.1,0.8,0.6,1.3,0.6,1.3S33,17.6,33,16.8z M31.5,15.2c-0.2-0.8-0.9-1.2-0.9-1.2s-0.4,0.8-0.3,1.5c0.2,0.8,0.9,1.2,0.9,1.2 S31.7,16,31.5,15.2z M29.8,13.9c-0.3-0.7-1.1-1.1-1.1-1.1s-0.3,0.8,0,1.5c0.3,0.7,1.1,1.1,1.1,1.1S30.1,14.6,29.8,13.9z M20.5,38.3 c-0.7,0.3-1.5,0.1-1.5,0.1s0.3-0.8,1-1.1c0.7-0.3,1.5-0.1,1.5-0.1S21.2,38,20.5,38.3z M18.4,37.9c-0.8,0.2-1.5-0.2-1.5-0.2 s0.4-0.8,1.2-1c0.8-0.2,1.5,0.2,1.5,0.2S19.1,37.6,18.4,37.9z M16.4,37.1c-0.8,0.1-1.4-0.4-1.4-0.4s0.5-0.6,1.3-0.8 c0.8-0.1,1.4,0.4,1.4,0.4S17.2,36.9,16.4,37.1z M14.5,35.9c-0.8,0-1.4-0.6-1.4-0.6s0.6-0.6,1.4-0.5c0.8,0,1.4,0.6,1.4,0.6 S15.3,35.9,14.5,35.9z M12.9,34.5c-0.8-0.2-1.3-0.8-1.3-0.8s0.7-0.5,1.5-0.3c0.8,0.2,1.3,0.8,1.3,0.8S13.7,34.6,12.9,34.5z M11.5,32.9c-0.8-0.3-1.1-1-1.1-1s0.8-0.3,1.5-0.1c0.8,0.3,1.1,1,1.1,1S12.3,33.1,11.5,32.9z M10.4,31c-0.7-0.4-1-1.2-1-1.2 s0.8-0.2,1.5,0.2c0.7,0.4,1,1.2,1,1.2S11.1,31.4,10.4,31z M9.7,29c-0.6-0.5-0.8-1.3-0.8-1.3s0.9-0.1,1.4,0.4 c0.6,0.5,0.8,1.3,0.8,1.3S10.2,29.5,9.7,29z M9.2,26.9c-0.5-0.6-0.5-1.4-0.5-1.4s0.9,0.1,1.4,0.6c0.5,0.6,0.5,1.4,0.5,1.4 S9.7,27.5,9.2,26.9z M9.1,24.8c-0.4-0.6-0.3-1.5-0.3-1.5s0.9,0.2,1.2,0.9c0.4,0.6,0.3,1.5,0.3,1.5S9.5,25.4,9.1,24.8z M9.3,22.6 c-0.3-0.7-0.1-1.5-0.1-1.5s0.8,0.3,1.1,1c0.3,0.7,0.1,1.5,0.1,1.5S9.6,23.3,9.3,22.6z M9.8,20.5C9.6,19.8,10,19,10,19 s0.8,0.4,0.9,1.2c0.2,0.8-0.2,1.5-0.2,1.5S10,21.3,9.8,20.5z M10.7,18.6c-0.1-0.8,0.4-1.4,0.4-1.4s0.6,0.6,0.8,1.3 c0.1,0.8-0.4,1.4-0.4,1.4S10.8,19.4,10.7,18.6z M11.9,16.8c0.1-0.8,0.6-1.3,0.6-1.3s0.5,0.6,0.5,1.4c-0.1,0.8-0.6,1.3-0.6,1.3 S11.8,17.6,11.9,16.8z M13.4,15.2c0.2-0.8,0.9-1.2,0.9-1.2s0.4,0.8,0.3,1.5c-0.2,0.8-0.9,1.2-0.9,1.2S13.2,16,13.4,15.2z M15,13.9 c0.3-0.7,1.1-1.1,1.1-1.1s0.3,0.8,0,1.5C15.8,15,15,15.4,15,15.4S14.7,14.6,15,13.9z M22.4,11.4c1.7,0,3.4,0.3,5,1l0.5-2.6 c-0.1,0-0.2-0.1-0.3-0.2c-0.2,0.3-0.8,0.8-1.2,0.8h-0.1c-0.1,0-0.3-0.1-0.3-0.1c0.1-0.2,0.1-0.4,0-0.5c0,0-0.1,0-0.1-0.1 c0,0.1,0,0.1-0.1,0.2c-0.1,0-0.1,0-0.2-0.1c0-0.1-0.1-0.1-0.1-0.2c0-0.1,0-0.1,0-0.1h0.1c0.1,0,0.2-0.1,0.2-0.1 c0-0.1-0.1-0.2-0.1-0.2h-0.1c0,0,0-0.1,0.1-0.1C25.8,9.1,25.9,9,26,9c0.1,0,0.1,0.1,0.1,0.1c0.1,0.1,0.1,0.1,0.1,0.2v0.1 c0,0,0.1,0.1,0.1,0.1c0.1,0,0.1,0,0.2-0.1c0.1-0.1,0.2-0.2,0.2-0.2c0-0.1,0-0.1,0-0.1c0.1-0.2,0-0.5-0.2-0.6 c-0.1-0.1-0.2-0.1-0.3-0.1c-0.1,0-0.2,0.1-0.3,0.1c-0.1,0.1-0.2,0.3-0.3,0.4c-0.1,0.1-0.1,0.2-0.1,0.3c0,0.1,0,0.1,0,0.1 c0-0.1,0-0.1,0-0.1c0-0.1,0.1-0.2,0.1-0.2c0.1-0.2,0.1-0.3,0.2-0.4c0-0.1,0.1-0.1,0.1-0.1C26,8.2,26,8,26,7.9c0-0.1,0-0.3-0.1-0.4 c0-0.1-0.1-0.4-0.2-0.5c-0.1-0.4-0.1-0.4-0.2-0.4c-0.1,0-0.5,0.6-0.5,0.6C25.1,7.5,25,7.6,25,7.7c0,0.1,0,0.3,0,0.4 c0,0.1,0,0.1,0.1,0.2c0.1,0.2,0.1,0.3,0.1,0.5c0,0.1,0,0.2,0,0.3c0,0.1,0,0.1,0,0.1c0-0.1,0-0.1,0-0.1c0-0.1,0-0.2,0-0.3V8.7 c-0.1-0.2-0.1-0.4-0.2-0.5C25,8,24.9,7.9,24.8,7.9c-0.1-0.1-0.2-0.1-0.3,0c-0.2,0.1-0.3,0.3-0.3,0.5c0,0.1,0,0.1,0,0.1 c0,0.1,0.1,0.2,0.1,0.3c0.1,0.1,0.2,0.2,0.2,0.2c0-0.1,0-0.1,0-0.1c0-0.1,0.1-0.1,0.1-0.2c0.1-0.1,0.1-0.1,0.2,0 c0.1,0.1,0.2,0.2,0.2,0.3c0,0.1,0,0.1,0,0.1h-0.1c-0.1,0-0.2,0.1-0.2,0.1c0,0.1,0.1,0.2,0.1,0.2h0.1c0,0,0,0.1-0.1,0.1 c0,0.1-0.1,0.1-0.1,0.1c-0.1,0.1-0.1,0-0.2,0c-0.1-0.1-0.1-0.1-0.1-0.2h-0.1c-0.1,0.1-0.1,0.1-0.2,0.2c0,0.1,0,0.2,0.1,0.3 c-0.1,0-0.2,0.1-0.3,0.1c-0.1,0-0.1,0-0.2,0c-0.7-0.1-1.1-0.7-1.2-1.1c-0.1,0-0.1,0-0.1,0.1c-0.1,0-0.1,0-0.1,0s-0.2,0-0.2-0.1 c-0.1,0.3-0.5,1-1.2,1.1c-0.1,0-0.1,0-0.2,0c-0.1,0-0.2,0-0.3-0.1c0.1-0.1,0.1-0.2,0.1-0.3c0-0.1-0.1-0.1-0.2-0.2h-0.1 c0,0.1,0,0.1-0.1,0.2c-0.1,0.1-0.1,0.1-0.2,0c-0.1,0-0.1-0.1-0.1-0.1c0-0.1,0-0.1-0.1-0.1h0.1c0.1,0,0.1-0.1,0.1-0.2 C20.1,9,20,9,19.9,9h-0.1c0-0.1,0-0.1,0-0.1c0-0.1,0.1-0.2,0.2-0.3c0.1,0,0.1,0,0.2,0c0.1,0.1,0.1,0.1,0.1,0.2c0,0,0,0.1,0,0.1 c0.1,0,0.2-0.1,0.2-0.2c0.1-0.1,0.1-0.2,0.1-0.3c0-0.1,0-0.1,0-0.1c0-0.3-0.1-0.4-0.3-0.5c-0.1-0.1-0.2-0.1-0.3,0 c-0.1,0.1-0.2,0.1-0.3,0.3c-0.1,0.2-0.1,0.3-0.2,0.5v0.1c0,0.1,0,0.2,0,0.3c0,0.1,0,0.1,0,0.1c0-0.1,0-0.1,0-0.1c0-0.1,0-0.2,0-0.3 c0-0.2,0.1-0.3,0.1-0.5c0-0.1,0-0.1,0.1-0.2c0.1-0.2,0.1-0.3,0-0.4c0-0.1-0.1-0.2-0.1-0.3c0,0-0.4-0.6-0.5-0.6c0,0,0,0-0.2,0.4 c-0.1,0.1-0.1,0.4-0.2,0.5c-0.1,0.1-0.1,0.2-0.1,0.4c0,0.1,0.1,0.3,0.1,0.4c0,0.1,0.1,0.1,0.1,0.1c0.1,0.1,0.2,0.3,0.2,0.4 C19,9,19,9,19,9.1c0,0.1,0,0.1,0,0.1c0-0.1,0-0.1,0-0.1C19,9,19,8.9,19,8.8c-0.1-0.2-0.2-0.3-0.3-0.4c-0.1-0.1-0.2-0.1-0.3-0.1 c-0.1,0-0.2,0.1-0.3,0.1c0.1,0.2,0.1,0.4,0.1,0.6c0,0.1,0,0.1,0,0.1c0.1,0.1,0.1,0.2,0.2,0.2c0.1,0.1,0.1,0.1,0.2,0.1 c0.1,0,0.1,0,0.1-0.1c0-0.1,0-0.1,0-0.1c0-0.1,0-0.1,0.1-0.2c0.1-0.1,0.1-0.1,0.1-0.1c0.1,0,0.2,0.1,0.2,0.2c0,0.1,0.1,0.1,0.1,0.1 H19c-0.1,0-0.1,0.1-0.1,0.2c0,0.1,0.1,0.1,0.1,0.1h0.1c0,0,0,0.1,0,0.1c0,0.1-0.1,0.1-0.1,0.2C19,9.9,18.9,10,18.9,9.9 c-0.1,0-0.1-0.1-0.1-0.2c0,0-0.1,0-0.1,0.1c-0.1,0.1-0.1,0.3,0,0.5c-0.1,0.1-0.2,0.1-0.3,0.1h-0.1c-0.4,0-1-0.5-1.2-0.8 c-0.1,0.1-0.2,0.2-0.3,0.2l0.5,2.6C19,11.7,20.7,11.4,22.4,11.4z M22.4,11.8c-1.7,0-3.3,0.3-4.9,1c0,0-0.1,0-0.1,0.1 c0,0-0.1,0-0.1,0.1c-0.2,0.2-0.3,0.4-0.2,0.7c0.1,0.2,0.3,0.3,0.5,0.3c0.1,0,0.2,0,0.2-0.1c1.4-0.6,3-0.9,4.6-0.9 c1.6,0,3.1,0.3,4.6,0.9c0.1,0.1,0.2,0.1,0.2,0.1c0.2,0,0.4-0.1,0.5-0.3c0.1-0.3,0-0.5-0.2-0.7c0,0-0.1,0-0.1-0.1c0,0-0.1,0-0.1-0.1 C25.7,12.2,24.1,11.8,22.4,11.8z M22.9,1.3c0,0.1-0.1,0.2-0.1,0.3c0.2,0.1,0.4,0.3,0.6,0.4V0.6c-0.2,0.2-0.4,0.3-0.6,0.4 C22.9,1.1,22.9,1.2,22.9,1.3z M22.4,0.8c0.1,0,0.2,0.1,0.3,0.1c0.1-0.2,0.3-0.4,0.4-0.6h-1.3c0.2,0.2,0.3,0.4,0.4,0.6 C22.2,0.8,22.3,0.8,22.4,0.8z M21.9,1.3c0-0.1,0.1-0.2,0.1-0.3c-0.2-0.1-0.4-0.3-0.6-0.4V2c0.2-0.2,0.4-0.3,0.6-0.4 C21.9,1.5,21.9,1.4,21.9,1.3z M23.1,2.4c-0.2-0.2-0.3-0.4-0.4-0.6c-0.1,0.1-0.2,0.1-0.3,0.1c-0.1,0-0.2-0.1-0.3-0.1 C22,2,21.9,2.2,21.8,2.4H23.1z M22.9,1c-0.1-0.1-0.1-0.1-0.2-0.2c-0.1-0.1-0.2-0.1-0.3-0.1s-0.2,0.1-0.3,0.1C22,0.9,22,0.9,21.9,1 c-0.1,0.1-0.1,0.2-0.1,0.3s0.1,0.2,0.1,0.3C22,1.7,22,1.7,22.1,1.8c0.1,0.1,0.2,0.1,0.3,0.1s0.2-0.1,0.3-0.1 c0.1-0.1,0.1-0.1,0.2-0.2C22.9,1.5,23,1.4,23,1.3S22.9,1.1,22.9,1z M21,9.1c0.2-0.2,0.6-0.4,0.9-0.5c-0.1-0.1-0.1-0.1-0.1-0.2 c-0.1-0.2,0-0.3,0.1-0.4c-0.2-0.1-0.6-0.4-0.9-0.5V9.1z M23.8,9.1V7.4c-0.2,0.2-0.6,0.5-0.9,0.5C22.9,8,22.9,8,22.9,8.1 c0.1,0.2,0,0.3-0.1,0.4C23.2,8.6,23.5,8.8,23.8,9.1z M22.1,7.7c0.1-0.1,0.1-0.1,0.2-0.1c0.1,0,0.1,0,0.1,0c0.1,0,0.2,0.1,0.3,0.1 c0.1-0.2,0.4-0.6,0.5-0.9h-1.7C21.7,7.1,22,7.5,22.1,7.7z M16.6,8.6c0.1,0,0.1,0,0.1,0s0.2,0,0.2,0.1c0.1-0.3,0.3-0.9,0.5-1.1 l-1.1,0.4L16.6,8.6z M18.1,9.8l-0.3-1.7c-0.1,0.2-0.4,0.6-0.6,0.7c0.1,0.1,0.1,0.2,0.2,0.3c0,0.1,0,0.2,0,0.3 C17.5,9.4,18,9.6,18.1,9.8z M17.1,8.7c-0.1-0.1-0.2-0.1-0.3-0.1c-0.1,0-0.2,0.1-0.3,0.1c-0.1,0.1-0.1,0.1-0.2,0.2 c-0.1,0.1-0.1,0.2-0.1,0.3c0,0.1,0.1,0.2,0.1,0.3c0.1,0.1,0.1,0.1,0.2,0.2c0.1,0.1,0.2,0.1,0.3,0.1c0.1,0,0.2-0.1,0.3-0.1 c0.1-0.1,0.1-0.1,0.2-0.2c0.1-0.1,0.1-0.2,0.1-0.3c0-0.1-0.1-0.2-0.1-0.3C17.2,8.8,17.2,8.7,17.1,8.7z M22.7,7.7 c-0.1-0.1-0.2-0.1-0.3-0.1s-0.2,0.1-0.3,0.1C22,7.8,22,7.8,21.9,7.9c-0.1,0.1-0.1,0.2-0.1,0.3c0,0.1,0.1,0.2,0.1,0.3 C22,8.6,22,8.6,22.1,8.7c0.1,0.1,0.2,0.1,0.3,0.1s0.2-0.1,0.3-0.1c0.1-0.1,0.1-0.1,0.2-0.2C22.9,8.4,23,8.3,23,8.2 c0-0.1-0.1-0.2-0.1-0.3C22.8,7.8,22.8,7.8,22.7,7.7z M28.5,8.8c-0.1-0.1-0.1-0.1-0.2-0.2c-0.1-0.1-0.2-0.1-0.3-0.1 c-0.1,0-0.2,0.1-0.3,0.1c-0.1,0.1-0.1,0.1-0.2,0.2c-0.1,0.1-0.1,0.2-0.1,0.3c0,0.1,0.1,0.2,0.1,0.3c0.1,0.1,0.1,0.1,0.2,0.2 c0.1,0.1,0.2,0.1,0.3,0.1c0.1,0,0.2-0.1,0.3-0.1c0.1-0.1,0.1-0.1,0.2-0.2c0.1-0.1,0.1-0.2,0.1-0.3C28.6,9.1,28.6,9,28.5,8.8z M28.2,8.6c-0.1,0-0.1,0-0.1,0s-0.2,0-0.2,0.1c-0.1-0.3-0.3-0.9-0.5-1.1l1.1,0.4L28.2,8.6z M26.6,9.8L27,8.1 c0.1,0.2,0.4,0.6,0.6,0.7c-0.1,0.1-0.1,0.2-0.2,0.3c0,0.1,0,0.2,0,0.3C27.2,9.4,26.9,9.6,26.6,9.8z M23,4.2h-1.2v2.2H23V4.2z M22.4,4.2c0.5,0,0.9-0.4,0.9-0.9c0-0.5-0.4-0.9-0.9-0.9c-0.5,0-0.9,0.4-0.9,0.9C21.5,3.8,21.9,4.2,22.4,4.2z M21.8,4.4 c-0.9,0-1.4-0.1-2.2-0.4c-0.5-0.2-1-0.3-1.4-0.3c-0.6,0-1.2,0.3-1.7,0.6c-1.1,1-0.8,2.3-0.4,3.1l0.6-0.2c-0.3-0.8-0.5-1.7,0.3-2.4 c0.3-0.3,0.8-0.5,1.2-0.5c0.3,0,0.7,0.1,1.2,0.3c0.8,0.3,1.4,0.4,2.4,0.4V4.9V4.4z M27.8,4.9c0.8,0.7,0.5,1.6,0.3,2.4l0.6,0.2 c0.3-0.8,0.7-2.1-0.4-3.1c-0.5-0.4-1.1-0.6-1.7-0.6c-0.4,0-0.8,0.1-1.4,0.3c-0.8,0.3-1.3,0.4-2.2,0.4v0.4v0.2c1,0,1.6-0.2,2.4-0.4 c0.5-0.2,0.9-0.3,1.2-0.3C27,4.4,27.5,4.6,27.8,4.9z M17.2,26.8c-0.1,0-0.1,0-0.2,0l-0.1-0.2l-0.1-0.1c0.3-0.2,1.1-0.6,2.1-1.1 c-0.3-0.1-0.6-0.1-0.9-0.2c-0.2-0.1-0.5-0.2-0.7-0.3c-0.1-0.1-0.1-0.1-0.2-0.1c-0.1,0-0.1-0.1-0.1-0.1l-0.8,0.4 c-0.1,0-0.1,0.1-0.1,0.1L16,24.9c0.1-0.1,0.1-0.2,0.2-0.3c0.1-0.2,0.1-0.3-0.1-0.4c0-0.1-0.1-0.1-0.1-0.1c-0.1-0.1-0.2-0.2-0.4-0.2 c0,0,0,0-0.1,0c-0.1,0-0.2,0-0.3,0.1c-0.1,0.1-0.2,0.2-0.3,0.3c-0.1,0.2-0.1,0.3,0.1,0.4l0.4,0.8h-0.1c-0.1,0-0.1,0.1-0.2,0.1 c-0.1,0-0.1,0.1-0.1,0.1c0,0,0,0.1-0.1,0.1h-0.1c-0.1,0-0.1,0.1-0.2,0.1s-0.1,0.1-0.1,0.1c0,0,0,0.1-0.1,0.1h-0.1 c-0.1,0-0.1,0.1-0.2,0.1c-0.1,0-0.1,0.1-0.1,0.1c0,0,0,0.1-0.1,0.1h-0.1c-0.1,0-0.1,0.1-0.2,0.1s-0.1,0.1-0.1,0.1c0,0,0,0.1-0.1,0.1 H14c-0.1,0-0.1,0.1-0.2,0.1c-0.1,0-0.1,0.1-0.1,0.1c0,0,0,0,0,0.1h-0.1c-0.1,0-0.1,0.1-0.2,0.1c-0.1,0-0.1,0.1-0.1,0.1 c0,0,0,0,0,0.1h-0.1c-0.1,0-0.1,0.1-0.2,0.1c-0.1,0-0.1,0.1-0.1,0.1c0,0,0,0,0,0.1h-0.1c-0.1,0-0.1,0.1-0.2,0.1 c-0.1,0-0.1,0.1-0.1,0.1h-0.1c0,0,0,0-0.1,0c-0.2,0-0.4,0.1-0.5,0.3c-0.1,0.2-0.2,0.3-0.2,0.5c0,0.4,0.3,0.7,0.8,0.7c0,0,0,0,0.1,0 c0.2,0,0.4-0.2,0.6-0.3c0.1-0.1,0.1-0.1,0.1-0.1h0.1c0.1,0,0.1,0,0.1-0.1c0.1,0,0.1,0,0.1-0.1c0.1-0.1,0.1-0.1,0.1-0.1h0.1 C14,28,14,28,14,28c0.1,0,0.1,0,0.1-0.1c0.1-0.1,0.1-0.1,0.1-0.1h0.1c0.1,0,0.1,0,0.1-0.1c0,0,0.1,0,0.1-0.1 c0.1-0.1,0.1-0.1,0.1-0.1h0.1c0.1,0,0.1,0,0.1-0.1c0,0,0.1,0,0.1-0.1c0.1-0.1,0.1-0.1,0.1-0.1h0.1c0.1,0,0.1,0,0.1-0.1 c0.1,0,0.1,0,0.1-0.1c0.1-0.1,0.1-0.1,0.1-0.1h0.1c0.1,0,0.1,0,0.1-0.1c0,0,0.1,0,0.1-0.1c0.1-0.1,0.1-0.1,0.1-0.1h0.1 c0.1,0,0.1,0,0.1-0.1c0,0,0.1,0,0.1-0.1c0.1-0.1,0.1-0.1,0.1-0.1h0.1c0.1,0,0.1,0,0.1-0.1H16l0.2,0.4l0.2,0.4 c0.1,0.2,0.3,0.3,0.5,0.3c0.1,0,0.2,0,0.3-0.1c0.1-0.1,0.2-0.2,0.3-0.3c0.1-0.2,0.1-0.3-0.1-0.4C17.5,26.9,17.4,26.8,17.2,26.8z M17.2,24.3c0.1,0.1,0.1,0.1,0.2,0.1c0.1,0.1,0.1,0.1,0.2,0.1c0.2,0.1,0.4,0.2,0.6,0.3c0.5,0.2,1.1,0.2,1.5,0.3c0.1,0,0.1,0,0.2,0 c0.1,0,0.2,0,0.2,0c0.2,0,0.3,0,0.4-0.1c0.1,0,0.2-0.1,0.2-0.1l0.2,0.8l-1.1,1.6c0,0,0.4,0.8,2.3,0.9c0.2,0,0.3,0,0.5,0 c0.2,0,0.3,0,0.5,0c1.8-0.1,2.2-0.9,2.2-0.9L23.6,26l0.3-0.7c-0.1,0-0.1,0-0.2,0c-0.2,0-0.3,0.1-0.4,0.1c-0.1,0-0.1,0-0.1,0 l-0.1-0.1c0,0,0.1-0.1,0.1-0.1c0.1-0.1,0.1-0.1,0.2-0.1C23.6,25,23.9,25,24,25c0.1,0,0.1,0,0.1,0c0.1,0,0.2,0.1,0.3,0.1 c0.1,0.1,0.2,0.1,0.4,0.1h0.1c0.1,0,0.2,0,0.2,0.1c0.1,0,0.1,0,0.3,0c0.1,0,0.1,0,0.1,0c0.4,0,0.4,0.2,0.4,0.2 c0.1,0,0.1-0.1,0.1-0.1c0.2-0.1,0.2-0.3,0.1-0.4c0-0.1-0.1-0.1-0.1-0.2c-0.1-0.1-0.1-0.1-0.2-0.2s-0.1-0.1-0.1-0.1 c0.1-0.3-0.8-0.4-1.2-0.5c-0.2-0.1-0.8-0.3-1.2-0.5c-0.1-0.1-0.3-0.1-0.3-0.2c-0.1,0-0.1-0.1-0.1-0.1s-0.1,0-0.1,0 c-0.1,0-0.2-0.1-0.3-0.1c-0.1,0-0.2,0-0.2,0c-0.1,0-0.2,0.1-0.2,0.1s-0.1-0.1-0.2-0.3c0-0.1-0.1-0.1-0.1-0.1 c-0.2-0.2-0.4-0.3-0.8-0.5c-0.1-0.1-0.1-0.1-0.2-0.1c-0.1-0.1-0.1-0.1-0.2-0.1c-0.1-0.1-0.2-0.1-0.4-0.2c-0.2-0.1-0.5-0.2-0.8-0.2 c-0.2-0.1-0.4-0.1-0.6-0.1c-0.4-0.1-0.9-0.2-1.5-0.2c-0.5-0.1-1-0.1-1.4-0.1c-2.9,0-4.4,0.8-4.4,0.8s1.4,0.2,3,0.6 C15.9,23.4,16.5,23.9,17.2,24.3z M22.9,22.2c-0.2-0.1-0.3-0.2-0.5-0.3c-0.1-0.1-0.1-0.1-0.2-0.1c-0.1-0.1-0.1-0.1-0.2-0.1 c-0.1,0-0.1-0.1-0.1-0.1c-2.6-1.3-4.9-2.5-5.1-2.6c-0.3-0.2-0.9-0.4-1.3-0.5c-0.2-0.1-0.5-0.1-0.7-0.2c-0.2-0.1-0.4-0.1-0.4-0.1 h-0.3l0.2,0.2c0,0,0.1,0.2,0.3,0.3c0.2,0.2,0.4,0.4,0.5,0.5c0.3,0.3,0.8,0.6,1.1,0.8c0.1,0.1,1.1,0.6,2.5,1.3c0.1,0,0.2,0.1,0.3,0.1 c0.2,0.1,0.4,0.1,0.6,0.1c0.3,0.1,0.5,0.2,0.8,0.2c0.2,0.1,0.3,0.1,0.4,0.2C20.9,22,21,22,21.1,22c0.1,0.1,0.2,0.1,0.2,0.1 c0.3,0.2,0.6,0.4,0.9,0.6c0.1,0.1,0.1,0.1,0.1,0.1l0.1,0.1c0.1,0,0.2,0,0.2,0c0.1,0,0.2,0,0.3,0.1c0.2-0.1,0.4-0.3,0.7-0.4 C23.4,22.5,23.2,22.4,22.9,22.2z M32.7,27.5c-0.1-0.2-0.3-0.2-0.5-0.3c0,0,0,0-0.1,0c0,0,0,0-0.1,0c-0.1-0.1-0.1-0.1-0.1-0.1 c-0.1,0-0.1-0.1-0.2-0.1c-0.1,0-0.1,0-0.1,0s0,0,0-0.1c-0.1-0.1-0.1-0.1-0.1-0.1c-0.1,0-0.1-0.1-0.2-0.1h-0.1c0,0,0,0,0-0.1 c-0.1-0.1-0.1-0.1-0.1-0.1c-0.1,0-0.1-0.1-0.2-0.1h-0.1v-0.1c-0.1-0.1-0.1-0.1-0.1-0.1c-0.1,0-0.1-0.1-0.2-0.1h-0.1v-0.1 c-0.2,0-0.2-0.1-0.3-0.1c-0.1,0-0.1-0.1-0.2-0.1h-0.1c0,0,0-0.1-0.1-0.1c-0.1-0.1-0.1-0.1-0.1-0.1c-0.1,0-0.1-0.1-0.2-0.1H30 c0,0,0-0.1-0.1-0.1c-0.1-0.1-0.1-0.1-0.1-0.1c-0.1,0-0.1-0.1-0.2-0.1h-0.1c0,0,0-0.1-0.1-0.1c-0.1-0.1-0.1-0.1-0.1-0.1 c-0.1,0-0.1-0.1-0.2-0.1h-0.1l0.4-0.8c0.1-0.1,0.1-0.3,0.1-0.4c-0.1-0.2-0.2-0.3-0.3-0.3C29.4,24,29.3,24,29.2,24 c-0.2,0-0.4,0.1-0.5,0.3c-0.1,0.1-0.1,0.3-0.1,0.4c0.1,0.1,0.1,0.2,0.2,0.3l-0.1,0.3c-0.1,0-0.1-0.1-0.1-0.1l-1.1-0.5 c0,0,0,0-0.1,0.1s-0.1,0.1-0.2,0.1c-0.2,0.2-0.5,0.3-0.8,0.3c0,0.2-0.1,0.4-0.2,0.6c0.8,0.4,1.4,0.8,1.6,0.9l-0.1,0.1l-0.1,0.1 c-0.1,0-0.1,0-0.2,0c-0.2,0-0.4,0.1-0.5,0.3c-0.1,0.1-0.1,0.3-0.1,0.4c0.1,0.2,0.2,0.3,0.3,0.3c0.1,0.1,0.2,0.1,0.3,0.1 c0.2,0,0.4-0.1,0.5-0.3l0.2-0.4l0.2-0.4c0,0,0,0,0.1,0c0.1,0,0.1,0.1,0.1,0.1h0.1c0.1,0.1,0.1,0.1,0.1,0.1c0,0,0.1,0,0.1,0.1 c0.1,0,0.1,0.1,0.1,0.1h0.1c0.1,0.1,0.1,0.1,0.1,0.1l0.1,0.1c0.1,0,0.1,0.1,0.1,0.1h0.1c0.1,0.1,0.1,0.1,0.1,0.1l0.1,0.1 c0.1,0,0.1,0.1,0.1,0.1h0.1c0.1,0.1,0.1,0.1,0.1,0.1l0.1,0.1c0.1,0,0.1,0.1,0.1,0.1h0.1c0.1,0.1,0.1,0.1,0.1,0.1l0.1,0.1 c0.1,0,0.1,0.1,0.1,0.1h0.1c0.1,0.1,0.1,0.1,0.1,0.1l0.1,0.1c0.1,0,0.1,0.1,0.1,0.1h0.1c0.1,0.1,0.1,0.1,0.1,0.1l0.1,0.1 c0.1,0,0.1,0.1,0.1,0.1H31c0.1,0.1,0.1,0.1,0.1,0.1c0.1,0.2,0.3,0.3,0.6,0.3c0,0,0,0,0.1,0c0.4,0,0.7-0.3,0.8-0.7 C32.9,27.8,32.9,27.6,32.7,27.5z M28.2,30.2c-0.1-0.6-0.3-1-0.4-1.3c-0.2-0.3-0.3-0.7-0.3-0.7s-0.5,0.4-0.8,0.5 c-0.3,0.2-0.7,0.4-1,0.8c-0.3,0.4-0.6,0.9-0.6,0.9s0.1,0,0.3,0c0.2,0,0.4,0,0.6,0.1c0,0,0,0,0.1,0s0.1,0,0.1,0c0,0,0,0,0.1,0 c0,0,0,0,0.1,0c0,0-0.1,0.9-0.9,1.7c-0.2,0.2-0.5,0.4-0.8,0.6c-0.2,0.1-0.3,0.2-0.4,0.3c-0.1,0-0.1,0-0.2,0c-0.6,0-1.1-0.5-1.1-1 v-3.5c-0.2,0-0.3,0-0.5,0c-0.2,0-0.3,0-0.5,0v3.5c0,0.6-0.5,1-1.1,1c-0.1,0-0.1,0-0.2,0c-0.2-0.1-0.3-0.2-0.4-0.3 c-0.2-0.1-0.4-0.3-0.6-0.4c-0.1-0.1-0.1-0.1-0.2-0.2c-0.8-0.9-0.9-1.7-0.9-1.7s0,0,0.1,0c0,0,0,0,0.1,0c0.1,0,0.1,0,0.1,0 c0,0,0,0,0.1,0c0.3-0.1,0.5-0.1,0.6-0.1c0.2,0,0.3,0,0.3,0s-0.3-0.6-0.6-0.9c-0.3-0.4-0.8-0.6-1-0.8c-0.3-0.2-0.8-0.5-0.8-0.5 s-0.1,0.4-0.2,0.8c-0.1,0.4-0.4,0.6-0.4,1.3c-0.1,0.6,0.1,1.1,0.1,1.1s0.4-0.3,0.9-0.5c0,0,0,0,0.1,0c0,0,0,0,0.1,0c0,0,0,0,0.1,0 c0,0,0,0,0.1,0c0,0,0,0,0.1,0c0,0,0,0,0.1,0c0,0.2,0.3,1.4,0.9,2.2c0,0,0,0,0.1,0.1c0.1,0.1,0.1,0.1,0.2,0.2c0.2,0.2,0.6,0.5,1,0.8 c0.5,0.3,1.1,0.7,1.5,1c0.6,0.5,0.9,0.8,0.9,0.8s0.3-0.4,0.9-0.8c0.4-0.3,1-0.7,1.5-1c0.4-0.3,0.8-0.6,1-0.8l0.1-0.1 c0.1-0.1,0.1-0.1,0.1-0.2l0.1-0.1c0.1-0.1,0.1-0.2,0.2-0.2c0.1-0.1,0.1-0.1,0.1-0.2c0.1-0.2,0.2-0.3,0.2-0.4 c0.1-0.2,0.2-0.4,0.2-0.5c0.1-0.2,0.1-0.3,0.1-0.4C27,31.2,27,31,27,31c0,0,0,0,0.1,0c0,0,0,0,0.1,0c0,0,0,0,0.1,0c0,0,0,0,0.1,0 c0,0,0,0,0.1,0c0.5,0.3,0.9,0.5,0.9,0.5S28.2,30.9,28.2,30.2z M17.9,30.8C17.9,30.8,17.9,30.8,17.9,30.8 C17.9,30.8,17.9,30.8,17.9,30.8z M26.9,30.8C26.9,30.8,26.9,30.8,26.9,30.8C26.9,30.8,26.9,30.8,26.9,30.8 C26.9,30.8,26.9,30.8,26.9,30.8C26.9,30.8,26.9,30.8,26.9,30.8z M26.9,30.8C26.9,30.8,26.9,30.8,26.9,30.8 C27,30.8,27,30.8,26.9,30.8C26.9,30.8,26.9,30.8,26.9,30.8z M22.9,17.8v-0.3c0.7-0.2,1.2-0.9,1.2-1.6c0-0.9-0.8-1.7-1.7-1.7 c-0.9,0-1.7,0.8-1.7,1.7c0,0.8,0.5,1.3,1.2,1.6v0.3H17v0.9l3.6,0.5h1.3v2c0.1,0.1,0.2,0.1,0.2,0.1l0.3,0.2l0.3-0.2 c0.1-0.1,0.2-0.1,0.2-0.1v-2h1.3l3.6-0.5v-0.9H22.9z M22.4,16.4c-0.3,0-0.5,0.2-0.5,0.5c-0.1-0.1-0.2-0.1-0.2-0.2 c-0.2-0.2-0.3-0.4-0.3-0.7c0-0.3,0.1-0.5,0.3-0.7c0.2-0.2,0.4-0.3,0.7-0.3c0.3,0,0.5,0.1,0.7,0.3c0.2,0.2,0.3,0.4,0.3,0.7 c0,0.3-0.1,0.5-0.3,0.7c-0.1,0.1-0.2,0.1-0.2,0.2C22.9,16.6,22.7,16.4,22.4,16.4z M30.4,18.3c0,0-0.2,0-0.4,0.1 c-0.2,0.1-0.5,0.1-0.7,0.2c-0.4,0.1-0.9,0.3-1.3,0.5c-0.2,0.1-2.5,1.3-5.1,2.6l1.2,0.6c0.1-0.1,0.1-0.1,0.2-0.1 c0.3-0.2,0.6-0.3,0.9-0.4c0.2-0.1,0.4-0.2,0.6-0.2c1.5-0.8,2.6-1.4,2.7-1.5c0.3-0.2,0.9-0.5,1.1-0.8c0.2-0.1,0.4-0.3,0.5-0.5 s0.3-0.3,0.3-0.3l0.2-0.2H30.4z M28.3,21.7c-0.2,0-0.5,0-0.7,0c-0.8,0.1-1.6,0.3-2.3,0.5c-0.3,0.1-0.6,0.3-0.9,0.4 c-0.1,0.1-0.1,0.1-0.2,0.1c-0.1,0.1-0.1,0.1-0.2,0.1c-0.3,0.2-0.5,0.3-0.7,0.4c0.1,0,0.1,0.1,0.1,0.1c0.8,0.4,1,0.4,1.1,0.4 c0.1,0,0.1,0,0.2,0.1c0.6,0.1,1.1,0.3,1.3,0.6c0,0,0,0.1,0.1,0.1c0.1,0.1,0.2,0.1,0.2,0.2c0,0,0,0.1,0.1,0.1 c0.3-0.1,0.5-0.2,0.7-0.3c0.1-0.1,0.1-0.1,0.2-0.1s0.1-0.1,0.2-0.1c0.3-0.3,0.6-0.5,1.2-0.8c1.8-0.7,4.7-1.1,4.7-1.1 S30.6,21.7,28.3,21.7z">
  </path>
</svg>
